<svg id="Bookings" xmlns="http://www.w3.org/2000/svg" width="35" height="35" viewBox="0 0 35 35">
  <rect id="Rectangle_4686" data-name="Rectangle 4686" width="35" height="35" rx="5" fill="#003f9a"/>
  <g id="Group_21711" data-name="Group 21711" transform="translate(8 9)">
    <path id="Path_28193" data-name="Path 28193" d="M14.457,15.5H3.743a3.743,3.743,0,0,0-.022,7.485H5.4V20.053a2.384,2.384,0,0,1,2.382-2.382h.005a2.385,2.385,0,0,1,2.376,2.382v2.932h4.293a3.743,3.743,0,0,0,0-7.485Zm1.059,3.221-2.133,2.133a.533.533,0,0,1-.754,0l-1.066-1.066a.533.533,0,1,1,.754-.754l.689.689,1.756-1.756a.533.533,0,1,1,.754.754Z" transform="translate(0 -15.5)" fill="#fff"/>
    <path id="Path_28194" data-name="Path 28194" d="M96.142,112.329l-3.432-.357V107.9a1.315,1.315,0,0,0-2.63,0v6.822h-.012l-1.3-1.084a1.265,1.265,0,1,0-1.621,1.942l2.635,2.2h7.761v-3.859A1.6,1.6,0,0,0,96.142,112.329Z" transform="translate(-83.612 -103.344)" fill="#fff"/>
    <path id="Path_28195" data-name="Path 28195" d="M181.95,452.566a.533.533,0,0,0,.533.533h6.4a.533.533,0,0,0,.533-.533V451.5H181.95Z" transform="translate(-175.482 -436.002)" fill="#fff"/>
  </g>
</svg>
