<svg xmlns="http://www.w3.org/2000/svg" width="35" height="35" viewBox="0 0 35 35">
  <g id="Category" transform="translate(-92 -1487)">
    <g id="Dashboard" transform="translate(92 1487)">
      <path id="Path_28187" data-name="Path 28187" d="M5,0H30a5,5,0,0,1,5,5V30a5,5,0,0,1-5,5H5a5,5,0,0,1-5-5V5A5,5,0,0,1,5,0Z" fill="#ebebeb"/>
    </g>
    <path id="categories" d="M14.349,8.336v4.676a1.336,1.336,0,0,1-1.336,1.336H8.336A1.336,1.336,0,0,1,7,13.013V8.336A1.336,1.336,0,0,1,8.336,7h4.676A1.336,1.336,0,0,1,14.349,8.336ZM22.366,7H17.689a1.336,1.336,0,0,0-1.336,1.336v4.676a1.336,1.336,0,0,0,1.336,1.336h4.676A1.336,1.336,0,0,0,23.7,13.013V8.336A1.336,1.336,0,0,0,22.366,7Zm-9.353,9.353H8.336A1.336,1.336,0,0,0,7,17.689v4.676A1.336,1.336,0,0,0,8.336,23.7h4.676a1.336,1.336,0,0,0,1.336-1.336V17.689A1.336,1.336,0,0,0,13.013,16.353Zm7.015,0A3.674,3.674,0,1,0,23.7,20.027a3.674,3.674,0,0,0-3.674-3.674Z" transform="translate(94 1489)" fill="#69696b"/>
  </g>
</svg>
