<svg xmlns="http://www.w3.org/2000/svg" width="24.513" height="24.513" viewBox="0 0 24.513 24.513">
  <g id="Edit" transform="translate(0 0.201)">
    <rect id="Rectangle_3024" data-name="Rectangle 3024" width="24.513" height="24.513" rx="12.257" transform="translate(0 -0.201)" fill="#003f9a"/>
    <path id="Icon_awesome-edit" data-name="Icon awesome-edit" d="M10.874,3.731a.21.21,0,0,1,0,.3L6.181,8.721l-1.994.221a.418.418,0,0,1-.462-.462l.221-1.994L8.639,1.793ZM12.417,1.3,11.368.252a.84.84,0,0,0-1.186,0l-.761.761a.21.21,0,0,0,0,.3L11.36,3.248a.21.21,0,0,0,.3,0l.761-.761a.84.84,0,0,0,0-1.186Z" transform="translate(4.064 7.58)" fill="#fff"/>
  </g>
</svg>
