<svg xmlns="http://www.w3.org/2000/svg" width="20.262" height="20.262" viewBox="0 0 20.262 20.262">
  <path id="Icon_awesome-check-circle" data-name="Icon awesome-check-circle" d="M20.824,10.693A10.131,10.131,0,1,1,10.693.563,10.131,10.131,0,0,1,20.824,10.693Zm-11.3,5.364,7.516-7.516a.654.654,0,0,0,0-.924l-.924-.924a.654.654,0,0,0-.924,0l-6.13,6.13L6.2,9.96a.654.654,0,0,0-.924,0l-.924.924a.654.654,0,0,0,0,.924L8.6,16.058a.654.654,0,0,0,.924,0Z" transform="translate(-0.563 -0.563)" fill="#003f9a"/>
</svg>
