<svg xmlns="http://www.w3.org/2000/svg" width="75" height="75" viewBox="0 0 75 75">
  <g id="Items" transform="translate(1776 -9309)">
    <rect id="Rectangle_4775" data-name="Rectangle 4775" width="75" height="75" rx="37.5" transform="translate(-1776 9309)" fill="#003f9a"/>
    <g id="Group_21677" data-name="Group 21677" transform="translate(-1944.885 9169.483)">
      <path id="Path_27639" data-name="Path 27639" d="M202.906,235.72h6.619v2.842c0,1.87-.023,3.74.021,5.609a1.235,1.235,0,0,0,.466.959c.241.1.729-.135.995-.358a21.707,21.707,0,0,0,1.57-1.636,21.179,21.179,0,0,0,1.4,1.671c.225.222.733.458.917.351a1.273,1.273,0,0,0,.5-.946c.04-2.666.022-5.333.025-8,0-.147.02-.294.034-.482h6.529c.018.255.052.518.052.781q0,6.161,0,12.322c0,1.223-.347,1.563-1.59,1.564q-8,0-16,0c-1.178,0-1.538-.356-1.539-1.522C202.9,244.524,202.906,240.173,202.906,235.72Z" transform="translate(-6.544 -58.917)" fill="#fff"/>
      <path id="Path_27640" data-name="Path 27640" d="M205.9,207.893q-4.823,0-9.647,0c-1.2,0-1.359-.171-1.363-1.392,0-.643.014-1.287,0-1.929-.021-.781.352-1.1,1.119-1.094,1.408.019,2.818-.022,4.225.027a1.331,1.331,0,0,1,.882.463,5.9,5.9,0,0,0,9.549.054,1.542,1.542,0,0,1,1.019-.514c1.376-.059,2.756-.006,4.133-.031.816-.015,1.188.33,1.156,1.152-.026.673,0,1.347-.006,2.021-.009,1.023-.219,1.241-1.235,1.243Q210.814,207.9,205.9,207.893Z" transform="translate(0 -32.606)" fill="#fff"/>
      <path id="Path_27641" data-name="Path 27641" d="M235.352,163.517a4.413,4.413,0,1,1-4.441,4.337A4.427,4.427,0,0,1,235.352,163.517Zm1.022,3.438-.073.01-.927-1.234-.974,1.131-1.277,1.063,1.307,1.083.841,1.122.97-1.126,1.281-1.07Z" transform="translate(-29.396)" fill="#fff"/>
      <path id="Path_27642" data-name="Path 27642" d="M247.3,235.726H250.1v6.984c-.912-1.3-1.837-1.535-2.806.1Z" transform="translate(-42.767 -58.922)" fill="#fff"/>
    </g>
  </g>
</svg>
