<svg id="Items" xmlns="http://www.w3.org/2000/svg" width="35" height="35" viewBox="0 0 35 35">
  <rect id="Rectangle_62" data-name="Rectangle 62" width="35" height="35" rx="5" fill="#ebebeb"/>
  <path id="Path_27552" data-name="Path 27552" d="M429.049,294.817s-1.543.782-1.63.787c.021.034.119.4.213.762a.838.838,0,0,1-.539,1l-.334.115a1.058,1.058,0,0,1-1.352-.688l-.243-.782a2.518,2.518,0,0,0,1.57-.414,1.051,1.051,0,0,0,.1-1.518c.17-1.058-.374-1.331-.374-1.331l.034-.427a3.332,3.332,0,0,0,1.2.572l.111-.248a2.681,2.681,0,0,1-1.855-1.621l-.834.119.017.563c-.069.6-.8.512-.8.512l-.508-1.394a.293.293,0,0,1,.088-.325l1.327-1.1a.635.635,0,0,1,.661-.092c.87.382,3.017,1.327,2.976,1.327s2.913-.44,5.067-.762v-2.539a1.924,1.924,0,0,0-.627-1.422l-6.073-5.535a1.741,1.741,0,0,0-2.347,0l-6.073,5.536a1.924,1.924,0,0,0-.627,1.422V296.4a1.919,1.919,0,0,0,1.916,1.922H432.03a1.919,1.919,0,0,0,1.916-1.922v-1.8Zm-2.965-13.294a.805.805,0,1,1-.8.805A.805.805,0,0,1,426.084,281.522Zm-4.59,5.067.238-1.451.46-.1.543,1.6,1.584-.358-.442-1.69.451-.171.83.713.352,1.561-.46,1.071.23.939-1.812,1.451-.493-1.69-1.021-.8Zm1.94,3.943.323,1.041-1.021.136a1.187,1.187,0,0,1,.7-1.177Zm-.259,2.454-.2-.628a.23.23,0,0,1,.184-.225l.71-.146.3.627s1.153-.064,1.225-.529a.239.239,0,0,1,.238-.239h.187a.29.29,0,0,1,.289.29v.174a.373.373,0,0,1-.3.366l-2.331.487A.262.262,0,0,1,423.174,292.986Zm.478,1.1a.434.434,0,0,1,.3-.583l1.9-.441a.45.45,0,0,1,.529.3A.489.489,0,0,1,426,294l-1.961.31a.355.355,0,0,1-.384-.22Zm1.006,1.409s-.545.018-.664-.751l2.2-.312a.429.429,0,0,1,.235.817,3.532,3.532,0,0,1-1.773.246Z" transform="translate(-408.573 -271.625)" fill="#69696b"/>
</svg>
