<svg xmlns="http://www.w3.org/2000/svg" width="35" height="35" viewBox="0 0 35 35">
  <g id="Logout" transform="translate(2154 -9505)">
    <rect id="Rectangle_25" data-name="Rectangle 25" width="35" height="35" rx="5" transform="translate(-2154 9505)" fill="#ebebeb"/>
    <path id="Path_27634" data-name="Path 27634" d="M96.7,140.256h1.71c0-.133,0-.263,0-.393,0-.4,0-.8,0-1.2.005-.375.141-.507.521-.508.9,0,1.8,0,2.7,0h3.842l.012.06c-.094.053-.186.109-.281.158-1.051.541-2.1,1.094-3.156,1.614a1.111,1.111,0,0,0-.7,1.125c.019,2.2.008,4.4.008,6.6v.428h-.481c-.649,0-1.3,0-1.948,0-.37,0-.515-.151-.517-.522,0-1.081,0-2.162,0-3.272H96.737c-.011.018-.031.037-.031.055,0,1.538-.013,3.075,0,4.613a.833.833,0,0,0,.926.835c1.1.006,2.21,0,3.315,0h.415v.385c0,.911,0,1.823,0,2.734,0,.525.291.714.748.478q3.135-1.619,6.267-3.243a.981.981,0,0,0,.573-.96q-.008-5.912,0-11.824a.864.864,0,0,0-.968-.967q-5.16,0-10.32,0a.844.844,0,0,0-.958.937C96.691,138.33,96.7,139.275,96.7,140.256Z" transform="translate(-2236.439 9377.553)" fill="#c90000"/>
    <path id="Path_27635" data-name="Path 27635" d="M227.481,170.238c.439-.427.82-.763,1.157-1.14a1.647,1.647,0,0,0,.353-.671.694.694,0,0,0-.33-.765.8.8,0,0,0-.9-.039,1.706,1.706,0,0,0-.346.273q-1.272,1.264-2.538,2.536a.9.9,0,0,0,0,1.5c.851.856,1.695,1.721,2.57,2.552a1.457,1.457,0,0,0,.77.354.694.694,0,0,0,.721-.473.854.854,0,0,0-.142-.956c-.29-.321-.6-.62-.915-.92a3.5,3.5,0,0,0-.354-.267l.062-.123h.349c1.458,0,2.916.006,4.373,0a.916.916,0,0,0,.807-1.4.89.89,0,0,0-.855-.454q-2.17,0-4.339,0Z" transform="translate(-2369.476 9348.62)" fill="#c90000"/>
  </g>
</svg>
