<svg xmlns="http://www.w3.org/2000/svg" width="317.164" height="152.178" viewBox="0 0 317.164 152.178">
  <g id="Logo" transform="translate(-30 -30)">
    <path id="Path_27552" data-name="Path 27552" d="M507.911,403.078s-12.76,6.468-13.475,6.508c.177.278.983,3.3,1.76,6.3a6.933,6.933,0,0,1-4.454,8.308l-2.764.951a8.751,8.751,0,0,1-11.179-5.692l-2.009-6.468s7.779.671,12.986-3.424c6.822-5.363.845-12.556.845-12.556,1.408-8.751-3.1-11.008-3.1-11.008l.282-3.529a27.546,27.546,0,0,0,9.919,4.727l.915-2.047a22.168,22.168,0,0,1-15.336-13.407l-6.894.987.141,4.657c-.571,4.946-6.613,4.235-6.613,4.235l-4.2-11.523a2.421,2.421,0,0,1,.725-2.69l10.972-9.119a5.249,5.249,0,0,1,5.462-.761c7.2,3.16,24.945,10.975,24.609,10.975-.268,0,24.087-3.641,41.9-6.3v-21a15.911,15.911,0,0,0-5.188-11.759l-50.214-45.766a14.394,14.394,0,0,0-19.405,0l-50.214,45.774a15.911,15.911,0,0,0-5.186,11.759v74.992A15.867,15.867,0,0,0,434.042,432.1h98.52a15.866,15.866,0,0,0,15.844-15.891v-14.86ZM483.392,293.149a6.659,6.659,0,1,1-6.641,6.659A6.659,6.659,0,0,1,483.392,293.149Zm-37.954,41.9,1.969-11.995,3.8-.847,4.494,13.266,13.095-2.964-3.659-13.972,3.729-1.412,6.864,5.9,2.913,12.9-3.8,8.852,1.9,7.762-14.98,12-4.081-13.972-8.441-6.634Zm16.04,32.6,2.673,8.609-8.443,1.128s-.495-7.6,5.77-9.735Zm-2.146,20.288-1.653-5.19a1.9,1.9,0,0,1,1.522-1.864l5.871-1.206,2.462,5.186s9.531-.529,10.131-4.376a1.973,1.973,0,0,1,1.969-1.977h1.549a2.4,2.4,0,0,1,2.391,2.4v1.438a3.087,3.087,0,0,1-2.454,3.027l-19.278,4.027A2.165,2.165,0,0,1,459.332,387.94Zm3.955,9.132a3.592,3.592,0,0,1,2.521-4.817l15.7-3.649a3.725,3.725,0,0,1,4.375,2.473,4.043,4.043,0,0,1-3.2,5.251l-16.219,2.563a2.935,2.935,0,0,1-3.177-1.821Zm8.321,11.649s-4.5.152-5.489-6.21l18.211-2.578a3.548,3.548,0,0,1,1.94,6.758,29.212,29.212,0,0,1-14.66,2.032Z" transform="translate(-388.2 -249.923)" fill="#003f9a"/>
    <text id="AIRE" transform="translate(267.164 131.105)" fill="#003f9a" font-size="73" font-family="Roboto-Bold, Roboto" font-weight="700"><tspan x="-79" y="0">AIRE</tspan></text>
  </g>
</svg>
