<svg xmlns="http://www.w3.org/2000/svg" width="14.9" height="18.159" viewBox="0 0 14.9 18.159">
  <g id="Notification" transform="translate(2138.11 -9448)">
    <path id="Icon_material-notifications-none" data-name="Icon material-notifications-none" d="M13.45,21.909a2.178,2.178,0,0,0,1.9-2.155H11.63A2.107,2.107,0,0,0,13.45,21.909Zm5.587-5.587V11.665c0-2.859-1.518-5.252-4.191-5.885V5.147a1.4,1.4,0,1,0-2.794,0V5.78C9.39,6.413,7.862,8.8,7.862,11.665v4.656L6,18.184v.931H20.9v-.931Zm-1.862.931H9.725V11.665c0-2.309,1.406-4.191,3.725-4.191s3.725,1.881,3.725,4.191Z" transform="translate(-2144.11 9444.25)" fill="#003f9a"/>
    <g id="Path_19139" data-name="Path 19139" transform="translate(-2129.5 9454)" fill="#c31426">
      <path d="M 3.13106632232666 5.612136363983154 C 1.762996315956116 5.612136363983154 0.6499963402748108 4.499136447906494 0.6499963402748108 3.13106632232666 C 0.6499963402748108 1.762996315956116 1.762996315956116 0.6499963402748108 3.13106632232666 0.6499963402748108 C 4.499136447906494 0.6499963402748108 5.612136363983154 1.762996315956116 5.612136363983154 3.13106632232666 C 5.612136363983154 4.499136447906494 4.499136447906494 5.612136363983154 3.13106632232666 5.612136363983154 Z" stroke="none"/>
      <path d="M 3.13106632232666 1.299996376037598 C 2.121406555175781 1.299996376037598 1.299996376037598 2.121406555175781 1.299996376037598 3.13106632232666 C 1.299996376037598 4.140726089477539 2.121406555175781 4.962136268615723 3.13106632232666 4.962136268615723 C 4.140726089477539 4.962136268615723 4.962136268615723 4.140726089477539 4.962136268615723 3.13106632232666 C 4.962136268615723 2.121406555175781 4.140726089477539 1.299996376037598 3.13106632232666 1.299996376037598 M 3.13106632232666 -3.814697265625e-06 C 4.860306262969971 -3.814697265625e-06 6.262136459350586 1.40182638168335 6.262136459350586 3.13106632232666 C 6.262136459350586 4.860306262969971 4.860306262969971 6.262136459350586 3.13106632232666 6.262136459350586 C 1.40182638168335 6.262136459350586 -3.814697265625e-06 4.860306262969971 -3.814697265625e-06 3.13106632232666 C -3.814697265625e-06 1.40182638168335 1.40182638168335 -3.814697265625e-06 3.13106632232666 -3.814697265625e-06 Z" stroke="none" fill="#fff"/>
    </g>
  </g>
</svg>
