<svg id="Query" xmlns="http://www.w3.org/2000/svg" width="35" height="35" viewBox="0 0 35 35">
  <rect id="Rectangle_4685" data-name="Rectangle 4685" width="35" height="35" rx="5" fill="#ebebeb"/>
  <path id="Path_27630" data-name="Path 27630" d="M125.053,132.613a8.548,8.548,0,1,1,8.56-8.528A8.533,8.533,0,0,1,125.053,132.613Zm.014-6.41h1a.367.367,0,0,0,.415-.337,1.59,1.59,0,0,1,.726-1.036c.2-.138.419-.25.628-.376a2.886,2.886,0,0,0,.846-4.386,4.226,4.226,0,0,0-3.361-1.69,4.5,4.5,0,0,0-4.108,2.267.4.4,0,0,0,.115.625c.44.32.871.654,1.3.986a.394.394,0,0,0,.63-.074c.172-.218.362-.421.543-.632a1.692,1.692,0,0,1,1.624-.559,1.262,1.262,0,0,1,1.036.776,1.043,1.043,0,0,1-.649,1.159c-.183.1-.384.179-.561.291a2.7,2.7,0,0,0-1.608,2.517c.025.367.109.464.486.468C124.445,126.206,124.756,126.2,125.067,126.2Zm-1.418,2.136c0,.323.007.645,0,.968-.008.3.117.454.432.45.656-.007,1.313-.006,1.969,0,.288,0,.435-.116.433-.415q-.006-1,0-2c0-.272-.116-.416-.4-.415q-1.018,0-2.036,0c-.281,0-.4.14-.4.413C123.653,127.671,123.65,128,123.65,128.339Z" transform="translate(-107.517 -106.517)" fill="#69696b"/>
</svg>
