<svg xmlns="http://www.w3.org/2000/svg" width="75" height="75" viewBox="0 0 75 75">
  <g id="Rider" transform="translate(-585 -215)">
    <rect id="Rectangle_4689" data-name="Rectangle 4689" width="75" height="75" rx="37.5" transform="translate(585 215)" fill="#003f9a"/>
    <path id="Path_27638" data-name="Path 27638" d="M124.517,186.216c.3,1.1.5,2.038.814,2.942.206.6.09.884-.47,1.24a7.38,7.38,0,0,0,1.409,13.258,7.4,7.4,0,1,0,3.824-14.242,2.035,2.035,0,0,0-.684-.118c-1.24.241-1.512-.491-1.77-1.5-.927-3.629-1.964-7.23-2.912-10.854a.9.9,0,0,0-1.073-.8c-1.916.039-3.832.014-5.8.014v2.571h4.6l.75,2.672c-2.15,0-4.217.023-6.283-.007a4.227,4.227,0,0,0-4.051,2.226,1.215,1.215,0,0,1-.916.386c-4.022.025-8.044.017-12.066.017H98.853V186.6a10.22,10.22,0,0,1,7.728,3.777,9.6,9.6,0,0,1,2.132,4.948h-2.551c-1.77-4.684-4.727-6.664-8.817-5.9a7.4,7.4,0,0,0,.045,14.533c4.142.691,7.145-1.333,8.769-5.956,3.094,0,6.22-.156,9.321.056a3.447,3.447,0,0,0,3.884-2.326c1.383-2.943,3.063-5.746,4.62-8.608C124.12,186.876,124.272,186.634,124.517,186.216Zm4.3,5.738a4.759,4.759,0,0,1,4.7,4.23,4.807,4.807,0,0,1-9.417,1.767c-.559-2.127.494-4.648,2.192-5.219q.292,1.047.583,2.092c.2.715.4,1.43.609,2.2l2.387-.657c.024-.121.056-.181.043-.231C129.554,194.76,129.191,193.388,128.813,191.954Zm-25.506,6.033a4.7,4.7,0,0,1-5,3.489,4.808,4.808,0,0,1,.36-9.59c2.234-.03,4.409,1.609,4.585,3.539H97.54v2.561Z" transform="translate(508.626 62.86)" fill="#f4f3f8"/>
  </g>
</svg>
