<svg id="search_1_" xmlns="http://www.w3.org/2000/svg" width="15.959" height="15.954" viewBox="0 0 15.959 15.954">
  <path id="Path_28201" data-name="Path 28201" d="M65.174,14.043a6.98,6.98,0,1,1,6.98-6.98A6.98,6.98,0,0,1,65.174,14.043Zm0-11.965a4.986,4.986,0,1,0,4.985,4.986A4.985,4.985,0,0,0,65.174,2.078Z" transform="translate(-56.194 -0.084)" fill="#aeaeae"/>
  <path id="Path_28202" data-name="Path 28202" d="M1,303a1,1,0,0,1-.714-1.7l.006-.006,3.749-3.749a1.019,1.019,0,0,1,1.416,1.466l-3.749,3.7A1,1,0,0,1,1,303Z" transform="translate(0 -287.051)" fill="#aeaeae"/>
</svg>
