<svg xmlns="http://www.w3.org/2000/svg" width="75" height="75" viewBox="0 0 75 75">
  <g id="Service" transform="translate(2036 -9309)">
    <rect id="Rectangle_4774" data-name="Rectangle 4774" width="75" height="75" rx="37.5" transform="translate(-2036 9309)" fill="#003f9a"/>
    <g id="Group_21676" data-name="Group 21676" transform="translate(-2108.894 9224.462)">
      <path id="Path_27626" data-name="Path 27626" d="M148.762,121.869c-.356.642-.653,1.222-.992,1.777a1.841,1.841,0,0,1-1.777.945c-.818-.038-1.639,0-2.458-.01a2.147,2.147,0,0,0-1.743.751.478.478,0,0,1-.7.123,6.336,6.336,0,0,1-2.906-3.071c-.062-.131-.12-.264-.184-.394-.015-.031-.05-.052-.09-.093a1.635,1.635,0,0,1-1.809.69,1.521,1.521,0,0,1-1.151-1.193,2.793,2.793,0,0,1-.045-.65c0-1.22-.026-2.441.013-3.66a3.6,3.6,0,0,1,.315-1.073,5.344,5.344,0,0,0,.413-.962,7.768,7.768,0,0,1,15.266-.379,2.721,2.721,0,0,0,.571,1.485,1.279,1.279,0,0,1,.242.813c.023,1.365.032,2.732-.005,4.1a3.424,3.424,0,0,1-.327.96,2.977,2.977,0,0,0-.3.869,4.811,4.811,0,0,1-4.835,4.927c-.873.023-1.748.013-2.622,0-.7-.009-1.154-.4-1.162-.965-.009-.593.447-.958,1.193-.972a25.719,25.719,0,0,0,3.158-.1,2.806,2.806,0,0,0,2.29-3.3A2.18,2.18,0,0,0,148.762,121.869ZM138,116.153c1.023-2.152,2.484-3.761,4.984-3.906,2.842-.165,4.512,1.521,5.736,4.043.155-.369.381-.641.352-.882a5.823,5.823,0,0,0-11.441-.4C137.529,115.47,137.52,115.856,138,116.153Z" transform="translate(-32.962 0)" fill="#fff"/>
      <path id="Path_27627" data-name="Path 27627" d="M118.281,266.208a9.1,9.1,0,0,1,4.427,6.554,12.072,12.072,0,0,1,.109,1.9,1.391,1.391,0,0,1-1.456,1.44q-10.985.008-21.971,0a1.418,1.418,0,0,1-1.485-1.419,9.208,9.208,0,0,1,6.58-9.35,1,1,0,0,1,1.006.219c.784.574,1.656,1.029,2.483,1.547a1.76,1.76,0,0,1,.542.467,2.21,2.21,0,0,0,1.88,1.13c1.22.009,2.447.061,3.659-.041A5.925,5.925,0,0,0,118.281,266.208Z" transform="translate(0 -139.608)" fill="#fff"/>
    </g>
  </g>
</svg>
