<svg id="Service" xmlns="http://www.w3.org/2000/svg" width="35" height="35" viewBox="0 0 35 35">
  <g id="Group_21702" data-name="Group 21702">
    <rect id="Rectangle_24" data-name="Rectangle 24" width="35" height="35" rx="5" fill="#003f9a"/>
  </g>
  <g id="Group_21710" data-name="Group 21710" transform="translate(10 9)">
    <path id="Path_27626" data-name="Path 27626" d="M143.375,116.688c-.218.392-.4.747-.607,1.087a1.126,1.126,0,0,1-1.086.578c-.5-.023-1,0-1.5-.006a1.312,1.312,0,0,0-1.066.459.292.292,0,0,1-.425.075A3.874,3.874,0,0,1,136.912,117c-.038-.08-.073-.161-.112-.241-.009-.019-.03-.032-.055-.057a1,1,0,0,1-1.106.422.93.93,0,0,1-.7-.729,1.708,1.708,0,0,1-.027-.4c0-.746-.016-1.492.008-2.238a2.2,2.2,0,0,1,.193-.656,3.267,3.267,0,0,0,.253-.588,4.749,4.749,0,0,1,9.333-.232,1.664,1.664,0,0,0,.349.908.782.782,0,0,1,.148.5c.014.835.019,1.67,0,2.5a2.093,2.093,0,0,1-.2.587,1.82,1.82,0,0,0-.181.531,2.941,2.941,0,0,1-2.956,3.012c-.534.014-1.069.008-1.6,0-.428-.005-.705-.243-.71-.59-.005-.363.274-.586.729-.594a15.722,15.722,0,0,0,1.931-.061,1.716,1.716,0,0,0,1.4-2.021A1.333,1.333,0,0,0,143.375,116.688Zm-6.577-3.495a3.566,3.566,0,0,1,3.047-2.388c1.738-.1,2.758.93,3.507,2.471.095-.226.233-.392.215-.539a3.56,3.56,0,0,0-6.995-.244C136.508,112.776,136.5,113.012,136.8,113.193Z" transform="translate(-132.428 -108.538)" fill="#fff"/>
    <path id="Path_28199" data-name="Path 28199" d="M110.358,265.849a5.566,5.566,0,0,1,2.707,4.007,7.38,7.38,0,0,1,.066,1.164.851.851,0,0,1-.89.88q-6.716.005-13.432,0a.867.867,0,0,1-.908-.867,5.629,5.629,0,0,1,4.023-5.716.609.609,0,0,1,.615.134c.48.351,1.012.629,1.518.945a1.076,1.076,0,0,1,.331.286,1.351,1.351,0,0,0,1.149.691c.746.005,1.5.037,2.237-.025A3.622,3.622,0,0,0,110.358,265.849Z" transform="translate(-97.894 -254.806)" fill="#fff"/>
  </g>
</svg>
