<svg id="Technician" xmlns="http://www.w3.org/2000/svg" width="35" height="35" viewBox="0 0 35 35">
  <rect id="Rectangle_23" data-name="Rectangle 23" width="35" height="35" rx="5" fill="#003f9a"/>
  <g id="Group_21709" data-name="Group 21709" transform="translate(8.544 7.003)">
    <path id="Path_28191" data-name="Path 28191" d="M43.571,194.657c-.248-1.541-.758-3.526-1.781-4.231-.7-.482-3.137-1.784-4.178-2.341l-.018-.01a.34.34,0,0,0-.37.032,4.423,4.423,0,0,1-1.776.858.34.34,0,0,0-.244.211l-.584,1.54-.584-1.54a.34.34,0,0,0-.244-.211,4.424,4.424,0,0,1-1.776-.858.34.34,0,0,0-.37-.032l-.018.01c-1.041.556-3.479,1.859-4.178,2.341-1.023.705-1.534,2.69-1.781,4.231a.341.341,0,0,0,.015.168c.042.119,1.118,2.9,8.937,2.915,7.819-.014,8.895-2.8,8.937-2.915A.34.34,0,0,0,43.571,194.657Zm-3.868-1.12H36.62v-.649H39.7Z" transform="translate(-25.662 -176.745)" fill="#fff"/>
    <path id="Path_28192" data-name="Path 28192" d="M99.773,11.839a5.8,5.8,0,0,0,4.794-5.919c0-.583-.014-1.145-.062-1.677a5.019,5.019,0,0,0-.827-2.685C103,.6,101.819.011,99.773,0c-2.045.011-3.227.6-3.9,1.557a5.019,5.019,0,0,0-.827,2.685c-.048.532-.062,1.095-.062,1.677A5.8,5.8,0,0,0,99.773,11.839Zm0-9.929a5.44,5.44,0,0,1,1.525.258l-.354.893a3.661,3.661,0,0,0-2.342,0l-.354-.893A5.444,5.444,0,0,1,99.773,1.91Zm0,2.24a4.085,4.085,0,0,1,2.87,1.156c-.21-.02-5.529-.02-5.739,0A4.085,4.085,0,0,1,99.773,4.151ZM95.7,5.014a1.444,1.444,0,0,0,.392.522c-.035.047,7.4.047,7.36,0a1.443,1.443,0,0,0,.392-.522c.011.3.016.6.016.906A5.279,5.279,0,0,1,102.2,9.929a4.562,4.562,0,0,1-2.43,1.2,4.562,4.562,0,0,1-2.43-1.2A5.279,5.279,0,0,1,95.686,5.92C95.686,5.617,95.69,5.314,95.7,5.014Z" transform="translate(-90.817)" fill="#fff"/>
  </g>
</svg>
